<svg height="512pt" viewBox="0 0 512 512" width="512pt" xmlns="http://www.w3.org/2000/svg"><path d="m299.9375 461.917969h-36.375c-22.128906 0-40.066406 17.9375-40.066406 40.0625h116.5c.003906-22.125-17.933594-40.0625-40.058594-40.0625zm0 0" fill="#72d8ff"/><path d="m251.5 384h43.519531v77.917969h-43.519531zm0 0" fill="#ade5ff"/><path d="m431.59375 10h50.40625c11.046875 0 20 8.929688 20 19.941406v333.027344c0 11.015625-8.953125 19.945312-20 19.945312h-452c-11.046875 0-20-8.929687-20-19.945312v-333.027344c0-11.011718 8.953125-19.941406 20-19.941406zm0 0" fill="#fff"/><path d="m98 311.023438h404v71.890624h-404zm0 0" fill="#72d8ff"/><path d="m439.148438 245.785156h-250.296876c-9.308593 0-16.851562-7.546875-16.851562-16.851562v-136.914063c0-9.304687 7.542969-16.851562 16.851562-16.851562h250.296876c9.304687 0 16.851562 7.546875 16.851562 16.851562v136.914063c0 9.304687-7.546875 16.851562-16.851562 16.851562zm0 0" fill="#e889c3"/><path d="m389.492188 245.785156-64.089844 95.394532h32l48.089844-71.578126zm0 0" fill="#fff"/><path d="m361.320312 341.179688h32v74.039062h-32zm0 0" fill="#fff"/><path d="m357.402344 341.179688h35.917968v74.039062h24.320313v-74.039062h35.9375l-48.085937-71.578126zm0 0" fill="#ffb954"/><path d="m248.929688 339.878906c-1.859376 1.859375-2.929688 4.441406-2.929688 7.070313 0 2.640625 1.070312 5.210937 2.929688 7.070312 1.859374 1.871094 4.441406 2.929688 7.070312 2.929688s5.210938-1.058594 7.070312-2.929688c1.859376-1.859375 2.929688-4.429687 2.929688-7.070312 0-2.628907-1.070312-5.199219-2.929688-7.070313-1.859374-1.859375-4.441406-2.929687-7.070312-2.929687s-5.210938 1.070312-7.070312 2.929687zm0 0"/><path d="m482 0h-452c-16.542969 0-30 13.433594-30 29.941406v333.027344c0 16.511719 13.457031 29.945312 30 29.945312h176.980469v59.261719c-25.226563 2.554688-44.980469 23.914063-44.980469 49.804688 0 5.523437 4.476562 10 10 10h168c5.519531 0 10-4.476563 10-10 0-25.886719-19.753906-47.25-44.980469-49.804688v-59.261719h13.3125c5.523438 0 10-4.476562 10-10 0-5.523437-4.476562-10-10-10h-288.332031c-5.515625 0-10-4.460937-10-9.945312v-41.945312h306.898438l-9.792969 14.582031c-2.0625 3.066406-2.261719 7.019531-.527344 10.277343 1.738281 3.261719 5.132813 5.296876 8.828125 5.296876h25.914062v64.039062c0 5.523438 4.480469 10 10 10h56.320313c5.519531 0 10-4.476562 10-10v-22.304688h54.359375c16.542969 0 30-13.433593 30-29.945312v-333.027344c0-16.507812-13.457031-29.941406-30-29.941406zm-196.980469 451.917969h-58.039062v-57.917969h58.039062zm43.269531 40.0625h-144.578124c4.128906-11.675781 15.277343-20.0625 28.351562-20.0625h87.875c13.074219 0 24.222656 8.386719 28.351562 20.0625zm-308.289062-190.957031v-271.082032c0-5.480468 4.484375-9.941406 10-9.941406h452c5.515625 0 10 4.460938 10 9.941406v271.082032h-53.351562l-30.390626-45.238282h27.742188c16.542969 0 30-13.457031 30-30v-130.617187c0-16.542969-13.457031-30-30-30h-147c-5.523438 0-10 4.476562-10 10 0 5.523437 4.476562 10 10 10h147c5.515625 0 10 4.484375 10 10v130.617187c0 5.515625-4.484375 10-10 10h-360c-5.515625 0-10-4.484375-10-10v-130.617187c0-5.515625 4.484375-10 10-10h127.5c5.523438 0 10-4.476563 10-10 0-5.523438-4.476562-10-10-10h-127.5c-16.542969 0-30 13.457031-30 30v130.617187c0 16.542969 13.457031 30 30 30h294.726562l-30.390624 45.238282zm387.640625 104.195312h-36.320313v-64.039062c0-5.523438-4.476562-10-10-10h-17.152343l9.773437-14.546876c.011719-.015624.019532-.027343.03125-.042968l35.519532-52.871094 45.320312 67.460938h-17.175781c-5.519531 0-10 4.476562-10 10v64.039062zm74.359375-32.304688h-54.359375v-21.734374h25.9375c3.695313 0 7.085937-2.035157 8.824219-5.296876 1.738281-3.257812 1.535156-7.210937-.523438-10.277343l-9.796875-14.582031h39.917969v41.945312c0 5.484375-4.484375 9.945312-10 9.945312zm0 0"/><path d="m246.410156 85.171875c2.628906 0 5.210938-1.070313 7.070313-2.933594 1.859375-1.859375 2.929687-4.4375 2.929687-7.066406 0-2.632813-1.070312-5.210937-2.929687-7.070313-1.859375-1.863281-4.441407-2.929687-7.070313-2.929687s-5.210937 1.066406-7.070312 2.929687c-1.859375 1.859376-2.929688 4.4375-2.929688 7.070313 0 2.628906 1.070313 5.207031 2.929688 7.066406 1.859375 1.863281 4.441406 2.933594 7.070312 2.933594zm0 0"/><path d="m217.492188 146.101562c0-14.878906-12.101563-26.984374-26.980469-26.984374h-16.746094c-5.519531 0-10 4.480468-10 10v33.960937.007813 33.957031c0 5.523437 4.480469 10 10 10 5.523437 0 10-4.476563 10-10v-9.820313l16.96875 16.96875c1.953125 1.953125 4.511719 2.925782 7.070313 2.925782 2.558593 0 5.117187-.976563 7.070312-2.925782 3.90625-3.90625 3.90625-10.238281 0-14.144531l-17.78125-17.78125c11.707031-2.945313 20.398438-13.558594 20.398438-26.164063zm-26.980469 6.980469h-6.746094v-13.964843h6.746094c3.851562 0 6.980469 3.132812 6.980469 6.980468 0 3.851563-3.132813 6.984375-6.980469 6.984375zm0 0"/><path d="m286.347656 207.042969c5.519532 0 10-4.476563 10-10v-38.546875l34.378906 44.648437c1.929688 2.503907 4.878907 3.898438 7.925782 3.898438 1.074218 0 2.160156-.175781 3.21875-.535157 4.054687-1.378906 6.777344-5.183593 6.777344-9.464843v-67.925781c0-5.523438-4.476563-10-10-10-5.519532 0-10 4.476562-10 10v38.546874l-34.378907-44.648437c-2.613281-3.390625-7.089843-4.746094-11.148437-3.367187-4.050782 1.382812-6.773438 5.1875-6.773438 9.46875v67.925781c0 5.523437 4.476563 10 10 10zm0 0"/><path d="m122.273438 119.117188h-16.746094c-5.523438 0-10 4.476562-10 10v68c0 5.523437 4.476562 10 10 10 5.523437 0 10-4.476563 10-10v-24.035157h6.746094c14.875 0 26.980468-12.105469 26.980468-26.980469 0-14.878906-12.105468-26.984374-26.980468-26.984374zm0 33.964843h-6.746094v-13.964843h6.746094c3.847656 0 6.980468 3.132812 6.980468 6.980468 0 3.851563-3.132812 6.984375-6.980468 6.984375zm0 0"/><path d="m246.410156 206.078125c5.519532 0 10-4.476563 10-10v-65.996094c0-5.523437-4.480468-10-10-10-5.523437 0-10 4.476563-10 10v65.996094c0 5.523437 4.476563 10 10 10zm0 0"/><path d="m372.511719 139.117188h6.980469v56.960937c0 5.523437 4.476562 10 10 10 5.519531 0 10-4.476563 10-10v-56.960937h6.980468c5.519532 0 10-4.476563 10-10 0-5.523438-4.480468-10-10-10h-33.960937c-5.523438 0-10 4.476562-10 10 0 5.523437 4.476562 10 10 10zm0 0"/></svg>